# xmcd
#
# Track frame offsets:
#	150
#	16324
#	33322
#	49870
#	61071
#	79022
#	95120
#	109835
#	122274
#	135809
#
# Disc length: 2031 seconds
#
# Revision: 0
# Processed by: cddbd v1.5.2PL0 Copyright (c) Steve Scherf et al.
# Submitted via: EasyCDDAExtractor 11.0.0.1
#
DISCID=7207ed0a
DTITLE=Divino and João Luiz - Divino and João Luiz Caboco Caipira
DYEAR=1900
DGENRE=Sertanejo
TTITLE0=Caboco Caipira
TTITLE1=Última Chance
TTITLE2=Galho de Rosa
TTITLE3=Mulher Confusa
TTITLE4=Vale do São Patrício
TTITLE5=Tempos Que Era Bão
TTITLE6=Dedinho Cortado
TTITLE7=Rio Araguaia
TTITLE8=Gastar Com Quem Merece
TTITLE9=Homenagem Especial
EXTD=
EXTT0=
EXTT1=
EXTT2=
EXTT3=
EXTT4=
EXTT5=
EXTT6=
EXTT7=
EXTT8=
EXTT9=
PLAYORDER=
